<svg width="108" height="84" viewBox="0 0 108 84" fill="none" xmlns="http://www.w3.org/2000/svg">
<path d="M13.5 10.794V26.411V26.726V26.411C13.5 30.87 15.8625 34.818 19.5255 37.373C21.3165 38.6225 22.5 40.3095 22.5 42.182V68.25C22.5 71.148 25.524 73.5 29.25 73.5C32.976 73.5 36 71.148 36 68.25V42.182C36 40.3095 37.1835 38.6225 38.9745 37.373C42.6375 34.818 45 30.87 45 26.411V10.794V26.411" stroke="#323232" stroke-width="6" stroke-linecap="round" stroke-linejoin="round"/>
<path d="M29.25 28V10.5" stroke="#323232" stroke-width="6" stroke-linecap="round" stroke-linejoin="round"/>
<path d="M90 14.182C90 12.25 87.984 10.682 85.5 10.682H81C73.5435 10.682 67.5 15.3825 67.5 21.182V42.182C67.5 46.746 71.2665 50.5925 76.5 52.038V68.25C76.5 71.148 79.524 73.5 83.25 73.5C86.976 73.5 90 71.148 90 68.25V52.682V14.182Z" stroke="#323232" stroke-width="6" stroke-linecap="round" stroke-linejoin="round"/>
</svg>
